<?xml version="1.0" encoding="iso-8859-1"?>
<!-- Generator: Adobe Illustrator 18.0.0, SVG Export Plug-In . SVG Version: 6.00 Build 0)  -->
<!DOCTYPE svg PUBLIC "-//W3C//DTD SVG 1.1//EN" "http://www.w3.org/Graphics/SVG/1.1/DTD/svg11.dtd">
<svg version="1.1" id="Capa_1" xmlns="http://www.w3.org/2000/svg" xmlns:xlink="http://www.w3.org/1999/xlink" x="0px" y="0px"
	 viewBox="0 0 395 395" style="enable-background:new 0 0 395 395;" xml:space="preserve">
<g>
	<path d="M293.331,147.084c-4.86-1.489-9.737-2.852-14.625-4.114v-35.927c0-13.339-8.84-25.063-21.667-28.728L205.708,63.65
		c-5.366-1.533-11.051-1.533-16.414,0l-51.333,14.665c-12.827,3.665-21.668,15.389-21.668,28.728v35.928
		c-4.887,1.263-9.764,2.624-14.624,4.113c-3.254,0.997-5.476,4.001-5.476,7.404v108.886c0,3.403,2.222,6.407,5.476,7.404
		c15.717,4.815,31.595,8.448,47.524,10.884L111.55,332.5h19.293l4.329-5.844h124.657l4.329,5.844h19.292l-37.643-50.836
		c15.929-2.437,31.808-6.069,47.524-10.885c3.253-0.997,5.475-4.001,5.475-7.404V154.488
		C298.806,151.085,296.584,148.081,293.331,147.084z M206.148,93.212l51.175,11.875v25.553l-51.175-11.873V93.212z M137.678,105.087
		l51.175-11.875v25.556l-51.175,11.873V105.087z M138.58,243.609c-7.697,0-13.939-6.241-13.939-13.939
		c0-7.698,6.242-13.94,13.939-13.94c7.698,0,13.94,6.242,13.94,13.94C152.52,237.368,146.278,243.609,138.58,243.609z
		 M249.227,312.342H145.773l10.493-14.167h82.468L249.227,312.342z M256.42,243.609c-7.698,0-13.94-6.241-13.94-13.939
		c0-7.698,6.242-13.94,13.94-13.94c7.697,0,13.94,6.242,13.94,13.94C270.359,237.368,264.117,243.609,256.42,243.609z"/>
	<path d="M313.001,0H81.999C36.785,0,0,36.784,0,81.998v230.993C0,358.211,36.785,395,81.999,395h231.002
		C358.216,395,395,358.211,395,312.991V81.998C395,36.784,358.216,0,313.001,0z M380,312.991C380,349.94,349.945,380,313.001,380
		H81.999C45.056,380,15,349.94,15,312.991V81.998C15,45.055,45.056,15,81.999,15h231.002C349.945,15,380,45.055,380,81.998V312.991z
		"/>
</g>
<g>
</g>
<g>
</g>
<g>
</g>
<g>
</g>
<g>
</g>
<g>
</g>
<g>
</g>
<g>
</g>
<g>
</g>
<g>
</g>
<g>
</g>
<g>
</g>
<g>
</g>
<g>
</g>
<g>
</g>
</svg>
